<svg width="104" height="32" viewBox="0 0 104 32" fill="none" xmlns="http://www.w3.org/2000/svg">
<rect x="0.450893" y="0.790248" width="102.741" height="30.7411" rx="15.3705" stroke="url(#paint0_linear_12_398)" stroke-width="0.901786"/>
<path d="M9.98472 20.8453V21.1609H12.8253V20.3276C12.3835 20.517 11.8911 20.6433 11.323 20.7316C11.9668 20.5801 11.9542 20.1256 11.9542 19.6585V16.5654H16.474V19.1914C16.474 20.1004 16.5623 20.618 15.6028 20.8453V21.1609H18.4435V20.3276C18.0016 20.517 17.5092 20.6433 16.9411 20.7316C17.585 20.5801 17.5723 20.1256 17.5723 19.6585V14.2929C17.5723 13.346 17.4966 12.8663 18.4435 12.639V12.3234H15.6028V13.1566C16.0321 12.9925 16.4613 12.841 16.9158 12.7526C16.4235 13.0935 16.474 13.3965 16.474 13.7374V16.3886H11.9542V14.2929C11.9542 13.3965 11.8785 12.7905 12.8253 12.639V12.3234H9.98472V13.1566C10.414 12.9925 10.8432 12.841 11.2977 12.7526C10.8053 13.0935 10.8558 13.3965 10.8558 13.7374V19.1914C10.8558 20.1004 10.9442 20.618 9.98472 20.8453ZM20.5483 15.2776C19.9928 15.6185 20.0559 16.1866 20.0559 16.4896V18.6106C20.0559 20.6938 20.7629 21.3629 22.1264 21.3629C22.8713 21.3629 23.654 20.9589 24.1464 20.4413V21.1609H26.078V20.3276C25.6488 20.517 25.1564 20.6433 24.5883 20.7316C25.2574 20.5423 25.2195 20.1888 25.2195 19.4944V14.8484H23.2753V15.7069C23.6919 15.5049 24.1338 15.366 24.5883 15.2776C24.0959 15.4923 24.1464 15.8079 24.1464 16.6285V20.2645C23.8687 20.5044 23.1995 20.8579 22.5809 20.8579C22.543 20.8579 22.4925 20.8453 22.442 20.8453C21.4447 20.8453 21.1669 20.0246 21.1669 18.5728V14.8484H19.2353V15.6816C19.6645 15.5175 20.0938 15.366 20.5483 15.2776ZM26.8946 20.7821V21.1609H29.609V20.3276C29.1671 20.517 28.7126 20.6433 28.2329 20.7316C28.8767 20.5801 28.8641 20.1256 28.8641 19.6585V16.1488C29.1545 15.7574 29.6216 15.1766 30.1645 15.1766C30.316 15.1766 30.4801 15.2271 30.6442 15.3408C30.5937 15.7069 30.8462 16.0099 31.2124 16.0478C31.5659 16.0478 31.8562 15.7953 31.8562 15.4291C31.8562 14.8736 31.427 14.6464 30.9599 14.6464C30.0761 14.6464 29.1924 15.3534 28.8641 15.972V14.8484H26.8946V15.6816C27.3239 15.5175 27.7531 15.366 28.2076 15.2776C27.7152 15.6185 27.7657 15.9215 27.7657 16.2624V19.1914C27.7657 20.0878 27.8541 20.6811 26.8946 20.7821ZM32.3934 20.7821V21.1609H35.1078V20.3276C34.6659 20.517 34.2114 20.6433 33.7317 20.7316C34.3755 20.5801 34.3629 20.1256 34.3629 19.6585V16.1488C34.6533 15.7574 35.1204 15.1766 35.6633 15.1766C35.8148 15.1766 35.9789 15.2271 36.143 15.3408C36.0925 15.7069 36.345 16.0099 36.7112 16.0478C37.0647 16.0478 37.355 15.7953 37.355 15.4291C37.355 14.8736 36.9258 14.6464 36.4587 14.6464C35.5749 14.6464 34.6912 15.3534 34.3629 15.972V14.8484H32.3934V15.6816C32.8227 15.5175 33.2519 15.366 33.7064 15.2776C33.214 15.6185 33.2645 15.9215 33.2645 16.2624V19.1914C33.2645 20.0878 33.3529 20.6811 32.3934 20.7821ZM39.0108 15.2776C38.5184 15.6185 38.531 16.1361 38.9729 17.083L40.9424 21.2998C40.5763 22.3224 40.2733 23.0925 40.0587 23.4586C39.8693 23.7743 39.6547 23.9763 39.4527 23.9763C39.3895 23.9763 39.3264 23.9636 39.2885 23.9384C39.3012 23.8753 39.3012 23.8374 39.3012 23.7869C39.3012 23.547 39.1118 23.2945 38.7709 23.2819C38.4805 23.2819 38.228 23.5091 38.228 23.8121C38.228 24.3298 38.6573 24.5823 39.1749 24.5823C40.3112 24.5823 40.753 23.3955 41.5105 21.2745L43.0887 16.8684C43.3917 16.0099 43.6063 15.3155 44.2628 15.164V14.8484H42.2807V15.164H43.48C43.2402 15.2398 43.076 15.366 42.9877 15.5554C42.8109 15.9341 42.672 16.3508 42.5332 16.7169C42.1797 17.7648 41.8388 18.8126 41.4474 19.8858L39.0992 14.8484H37.6978V15.6816C38.127 15.5175 38.5563 15.366 39.0108 15.2776ZM48.0252 13.1566C48.4545 12.9925 48.8837 12.841 49.3382 12.7526C48.8459 13.0935 48.8837 13.3839 48.8837 13.7374V16.8558C48.8837 19.9741 49.7422 21.3629 52.444 21.3629C54.9942 21.3629 55.8022 19.4186 55.8654 17.2093V14.2929C55.8654 13.3965 55.777 12.7905 56.7491 12.639V12.3234H54.4009V13.1566C54.8301 12.9925 55.2594 12.841 55.7139 12.7526C55.2215 13.0935 55.272 13.3965 55.272 13.7374V17.2093C55.272 19.2293 54.3882 20.6433 52.6081 20.6433C50.3356 20.6433 49.9947 18.7874 49.9947 16.9189V14.2929C49.9947 13.3965 49.919 12.7905 50.8659 12.639V12.3234H48.0252V13.1566ZM58.8064 15.2776C58.314 15.6185 58.3645 15.9215 58.3645 16.2624V22.4108C58.3645 23.3324 58.4529 23.8374 57.4934 24.0646V24.3803H60.2078V23.547C59.7659 23.7364 59.3114 23.8626 58.8316 23.951C59.4755 23.7111 59.4503 23.345 59.4503 22.8779V20.9463C59.8921 21.2114 60.3719 21.3629 60.9653 21.3629C62.6696 21.3629 64.1846 19.9236 64.1846 17.7774C64.1846 15.8331 62.859 14.6464 61.4071 14.6464C60.7001 14.6464 59.9553 14.9494 59.4503 15.4039V14.8484H57.4934V15.6816C57.9226 15.5175 58.3519 15.366 58.8064 15.2776ZM59.4503 15.5806C59.8038 15.2524 60.4224 14.9999 60.9148 14.9999C62.4803 14.9999 62.8843 16.7043 62.8843 17.9794C62.8843 19.5954 62.152 20.921 60.9274 20.921C60.3719 20.921 59.8543 20.7443 59.4503 20.4918V15.5806Z" fill="#F8E4BE"/>
<path fill-rule="evenodd" clip-rule="evenodd" d="M81.0981 20.2351C81.0521 20.2329 81.0012 20.2306 80.9448 20.2293C80.612 20.2189 80.1634 20.2189 79.538 20.2189C78.9122 20.2189 78.4635 20.2189 78.1312 20.2293C78.0749 20.2311 78.0239 20.2329 77.9779 20.2351C78.0348 20.6081 78.2235 20.9484 78.5097 21.1943C78.7959 21.4402 79.1607 21.5753 79.538 21.5753C79.9153 21.5753 80.2802 21.4402 80.5664 21.1943C80.8526 20.9484 81.0412 20.6081 81.0981 20.2351ZM79.538 22.4734C79.8637 22.4734 80.1862 22.4092 80.487 22.2846C80.7879 22.16 81.0613 21.9773 81.2916 21.747C81.5219 21.5167 81.7045 21.2433 81.8292 20.9425C81.9538 20.6416 82.0179 20.3191 82.0179 19.9934C82.0179 19.7932 82.0179 19.6521 81.9534 19.5529C81.8006 19.3171 81.2839 19.3171 79.538 19.3171C77.0581 19.3171 77.0581 19.3171 77.0581 19.9934C77.0581 20.6512 77.3194 21.2819 77.7845 21.747C78.2495 22.2121 78.8803 22.4734 79.538 22.4734ZM87.0567 12.5537H89.2322V17.9644H88.3304V13.4555H87.8006L86.5187 20.0791L85.6332 19.9078L87.0567 12.5537ZM90.336 21.5436C90.5396 21.5047 90.7335 21.426 90.9067 21.3121C91.0799 21.1982 91.2289 21.0513 91.3453 20.8798C91.4617 20.7083 91.5432 20.5156 91.5851 20.3126C91.627 20.1096 91.6285 19.9003 91.5895 19.6968L92.475 19.5272C92.5987 20.1732 92.4606 20.8419 92.0913 21.3861C91.7219 21.9303 91.1515 22.3055 90.5055 22.4292C89.8595 22.5528 89.1909 22.4148 88.6467 22.0454C88.1024 21.6761 87.7272 21.1057 87.6036 20.4597L88.4891 20.2901C88.5281 20.4937 88.6067 20.6876 88.7206 20.8608C88.8345 21.034 88.9814 21.183 89.1529 21.2994C89.3244 21.4158 89.5172 21.4973 89.7202 21.5392C89.9232 21.5811 90.1324 21.5826 90.336 21.5436Z" fill="#F8E4BE"/>
<path fill-rule="evenodd" clip-rule="evenodd" d="M91.2031 18.3306C90.906 18.1225 90.5585 17.9979 90.1969 17.9697C89.8353 17.9415 89.4727 18.0107 89.147 18.1702C88.8212 18.3297 88.5441 18.5736 88.3446 18.8765C88.1451 19.1794 88.0304 19.5302 88.0125 19.8925L91.9092 19.2054C91.7609 18.8531 91.5161 18.5499 91.2031 18.3306ZM89.5303 17.1064C90.2052 16.9875 90.9005 17.1088 91.4953 17.4494C92.09 17.7899 92.5466 18.3281 92.7857 18.9704C92.9913 19.5214 92.5792 20.003 92.1157 20.0841L88.1194 20.7893C87.6563 20.8705 87.1045 20.5594 87.1085 19.9714C87.1135 19.2861 87.3585 18.6241 87.801 18.1007C88.2434 17.5773 88.8553 17.2255 89.5303 17.1064ZM82.4688 14.3574H78.4108C78.2912 14.3574 78.1765 14.4049 78.092 14.4894C78.0074 14.574 77.9599 14.6887 77.9599 14.8082V15.71H82.9197V14.8082C82.9197 14.6887 82.8722 14.574 82.7876 14.4894C82.7031 14.4049 82.5884 14.3574 82.4688 14.3574ZM78.4108 13.4556C78.052 13.4556 77.708 13.5981 77.4543 13.8518C77.2006 14.1054 77.0581 14.4495 77.0581 14.8082V16.1609C77.0581 16.2805 77.1056 16.3952 77.1902 16.4798C77.2747 16.5643 77.3894 16.6118 77.509 16.6118H83.3706C83.4902 16.6118 83.6049 16.5643 83.6894 16.4798C83.774 16.3952 83.8215 16.2805 83.8215 16.1609V14.8082C83.8215 14.4495 83.679 14.1054 83.4253 13.8518C83.1716 13.5981 82.8276 13.4556 82.4688 13.4556H78.4108Z" fill="#F8E4BE"/>
<path fill-rule="evenodd" clip-rule="evenodd" d="M82.4686 16.6118H79.3511C77.5597 16.6118 76.1263 17.7999 75.7836 19.3171H82.4185C82.4364 19.3181 82.454 19.313 82.4686 19.3027V16.6118ZM79.3511 15.71C76.8396 15.71 74.8034 17.6389 74.8034 20.0187C74.8034 20.1292 74.8981 20.2189 75.0153 20.2189H82.4185C82.9443 20.2189 83.3704 19.8154 83.3704 19.3171V16.0707C83.3704 15.8714 83.1999 15.71 82.9898 15.71H79.3511ZM88.7811 10.7502H87.8793C87.6401 10.7502 87.4108 10.8452 87.2416 11.0143C87.0725 11.1834 86.9775 11.4128 86.9775 11.652C86.9775 11.8911 87.0725 12.1205 87.2416 12.2896C87.4108 12.4587 87.6401 12.5537 87.8793 12.5537H88.7811V10.7502ZM87.8793 9.84839C87.401 9.84839 86.9422 10.0384 86.604 10.3766C86.2657 10.7149 86.0757 11.1736 86.0757 11.652C86.0757 12.1303 86.2657 12.589 86.604 12.9273C86.9422 13.2655 87.401 13.4555 87.8793 13.4555H89.4056C89.5589 13.4555 89.6829 13.3311 89.6829 13.1782V10.1257C89.6829 10.0521 89.6537 9.98161 89.6017 9.92961C89.5496 9.8776 89.4791 9.84839 89.4056 9.84839H87.8793Z" fill="#F8E4BE"/>
<path d="M84.4283 10.2993L86.649 10.6898L86.4925 11.578L84.2723 11.1876L84.4283 10.2993Z" fill="#F8E4BE"/>
<path fill-rule="evenodd" clip-rule="evenodd" d="M87.4286 20.219H82.0179V19.3172H87.4286V20.219ZM86.5268 17.9645H82.4688V17.0627H86.5268V17.9645Z" fill="#F8E4BE"/>
<defs>
<linearGradient id="paint0_linear_12_398" x1="75.9695" y1="-7.01622" x2="26.7504" y2="49.3488" gradientUnits="userSpaceOnUse">
<stop stop-color="#E0A872"/>
<stop offset="0.444501" stop-color="#F8E4BE"/>
<stop offset="0.549712" stop-color="#FFF3E0"/>
<stop offset="1" stop-color="#E0A872"/>
</linearGradient>
</defs>
</svg>
